<svg width="32" height="32" viewBox="0 0 32 32" fill="none" xmlns="http://www.w3.org/2000/svg">
<rect width="32" height="32" fill="white"/>
<path d="M2.77 20.538C3.09667 20.5287 3.33 20.454 3.47 20.314C3.61 20.174 3.68933 20.0107 3.708 19.824C3.72667 19.628 3.736 19.292 3.736 18.816V12.768C3.736 12.376 3.75 12.04 3.778 11.76L2.77 11.816V11.2H5.92V11.662C5.59333 11.6713 5.36 11.746 5.22 11.886C5.08 12.026 5.00067 12.194 4.982 12.39C4.96333 12.5767 4.954 12.908 4.954 13.384V19.39C4.954 19.8753 4.94 20.2393 4.912 20.482L7.53 20.44C8.12733 20.4307 8.57533 20.244 8.874 19.88C9.17267 19.5067 9.322 18.914 9.322 18.102H9.798L9.714 21H2.77V20.538ZM10.8638 20.538C11.1904 20.5287 11.4238 20.454 11.5638 20.314C11.7038 20.174 11.7831 20.0107 11.8018 19.824C11.8204 19.628 11.8298 19.292 11.8298 18.816V12.768C11.8298 12.376 11.8438 12.04 11.8718 11.76L10.8638 11.816V11.2H17.3598L17.4298 13.65H16.9678C16.9678 12.8847 16.7951 12.362 16.4498 12.082C16.1044 11.802 15.6331 11.6713 15.0358 11.69L14.0138 11.718C13.6871 11.7273 13.4538 11.802 13.3138 11.942C13.1831 12.082 13.1038 12.2547 13.0758 12.46C13.0571 12.656 13.0478 12.9827 13.0478 13.44V15.848L15.4838 15.862L15.3858 14.644H16.0018V17.598H15.5538C15.5538 17.2433 15.5118 16.9773 15.4278 16.8C15.3531 16.6227 15.2318 16.5013 15.0638 16.436C14.8958 16.3707 14.6624 16.338 14.3638 16.338C14.1584 16.338 13.9998 16.3427 13.8878 16.352L13.0478 16.394V19.334C13.0478 19.8287 13.0338 20.1973 13.0058 20.44L14.4338 20.384V21H10.8638V20.538ZM23.0277 19.39C22.3183 17.8127 21.7677 16.5713 21.3757 15.666C20.9837 14.7513 20.601 13.79 20.2277 12.782L20.2137 13.398C20.1297 16.1327 20.0783 18.0833 20.0597 19.25C20.0597 19.39 20.055 19.4927 20.0457 19.558C20.0457 19.8753 20.0317 20.1693 20.0037 20.44L21.0537 20.384V21H18.3797V20.538C18.7717 20.5287 19.0237 20.4213 19.1357 20.216C19.257 20.0013 19.327 19.6793 19.3457 19.25L19.6537 11.76L18.6457 11.802V11.2H20.7877L22.6917 15.596C23.3823 17.22 23.9143 18.452 24.2877 19.292H24.3157C24.4277 19.012 24.6657 18.41 25.0297 17.486C25.3843 16.59 25.7903 15.6053 26.2477 14.532C26.7797 13.2813 27.237 12.1707 27.6197 11.2H29.6917V11.662C29.3557 11.6527 29.1083 11.746 28.9497 11.942C28.791 12.1287 28.7117 12.4507 28.7117 12.908L28.7257 13.188L29.0897 19.558C29.1083 19.7727 29.1177 20.062 29.1177 20.426L30.1397 20.384V21H27.0037V20.538C27.3677 20.5287 27.615 20.426 27.7457 20.23C27.8763 20.0247 27.9417 19.7073 27.9417 19.278C27.9417 19.1007 27.937 18.9653 27.9277 18.872L27.5637 12.908C27.545 12.9547 27.517 13.0153 27.4797 13.09C27.4517 13.1647 27.419 13.2533 27.3817 13.356L24.2317 21.14H23.8117L23.0277 19.39Z" fill="black"/>
</svg>
